# xmcd
#
# Track frame offsets:
#	150
#	21192
#	65720
#	89092
#	108672
#	143850
#	177980
#	222822
#
# Disc length: 3499 seconds
# Revision: 0
# Processed by: cddbd v1.5.2PL0 Copyright (c) Steve Scherf et al.
# Submitted via: dBpowerAMP V12.0
#
DISCID=790da908
DTITLE=River Ocean feat. India - Love and Happiness (Yemaya Y Ochún)
DYEAR=1994
DGENRE=House
TTITLE0=Love and Happiness (Yemaya Y Ochún) [Radio Edit]
TTITLE1=Love and Happiness (Yemaya Y Ochún) [12” Club Mix]
TTITLE2=Love and Happiness (Yemaya Y Ochún) [La Rumba]
TTITLE3=Love and Happiness (Yemaya Y Ochún) [Dream Sequence]
TTITLE4=Love and Happiness (Yemaya Y Ochún) [Tito and India]
TTITLE5=Love and Happiness (Yemaya Y Ochún) [Conga Drums]
TTITLE6=Love and Happiness (Yemaya Y Ochún) [Junior Boys Own Super Dub]
TTITLE7=Love and Happiness (Yemaya Y Ochún) [The Unreleased Mix]
EXTD=
EXTT0=
EXTT1=
EXTT2=
EXTT3=
EXTT4=
EXTT5=
EXTT6=
EXTT7=
PLAYORDER=
